<svg width="706" height="205" viewBox="0 0 706 205" fill="none" xmlns="http://www.w3.org/2000/svg">
<g opacity="0.2">
<path d="M0.578125 0.39999H20.0781C23.7781 0.39999 26.9281 1.74999 29.5281 4.44999C32.2281 7.04999 33.5781 10.2 33.5781 13.9V190.9C33.5781 194.6 32.2281 197.75 29.5281 200.35C26.9281 203.05 23.7781 204.4 20.0781 204.4H0.578125V0.39999ZM12.5781 12.4V192.4H20.0781C21.0781 192.4 21.5781 191.9 21.5781 190.9V13.9C21.5781 12.9 21.0781 12.4 20.0781 12.4H12.5781ZM43.3516 0.39999H55.3516H64.3516C68.0516 0.39999 71.2016 1.74999 73.8016 4.44999C76.5016 7.04999 77.8516 10.2 77.8516 13.9V58.9C77.8516 61.6 77.1016 64.1 75.6016 66.4C77.1016 68.7 77.8516 71.2 77.8516 73.9V204.4H65.8516V73.9C65.8516 72.9 65.3516 72.4 64.3516 72.4H55.3516V204.4H43.3516V0.39999ZM55.3516 12.4V60.4H64.3516C65.3516 60.4 65.8516 59.9 65.8516 58.9V13.9C65.8516 12.9 65.3516 12.4 64.3516 12.4H55.3516ZM87.5898 0.39999H99.5898V204.4H87.5898V0.39999ZM109.27 0.39999H112.27H121.27L130.27 37V0.39999H142.27V204.4H130.27V72.55L121.27 37V204.4H109.27V0.39999ZM152.043 0.39999H164.043V61.3C168.043 58.3 170.693 55.85 171.993 53.95C173.693 51.45 174.543 48.55 174.543 45.25V0.39999H186.543V41.65C186.543 47.95 185.993 52.35 184.893 54.85C183.793 57.25 181.793 59.95 178.893 62.95C181.293 64.55 183.143 66.6 184.443 69.1C185.843 71.5 186.543 74.1 186.543 76.9V204.4H174.543V76.9C174.543 75.7 174.093 74.65 173.193 73.75C172.293 72.85 171.243 72.4 170.043 72.4H164.043V204.4H152.043V0.39999ZM209.781 0.39999H215.781C219.481 0.39999 222.631 1.74999 225.231 4.44999C227.931 7.04999 229.281 10.2 229.281 13.9V36.4H217.281V13.9C217.281 12.9 216.781 12.4 215.781 12.4H209.781C208.781 12.4 208.281 12.9 208.281 13.9V55.9C208.281 57.1 208.731 58.15 209.631 59.05C210.531 59.95 211.581 60.4 212.781 60.4C217.381 60.4 221.281 62 224.481 65.2C227.681 68.4 229.281 72.3 229.281 76.9V190.9C229.281 194.6 227.931 197.75 225.231 200.35C222.631 203.05 219.481 204.4 215.781 204.4H209.781C206.081 204.4 202.881 203.05 200.181 200.35C197.581 197.75 196.281 194.6 196.281 190.9V87.4H208.281V190.9C208.281 191.9 208.781 192.4 209.781 192.4H215.781C216.781 192.4 217.281 191.9 217.281 190.9V76.9C217.281 75.7 216.831 74.65 215.931 73.75C215.031 72.85 213.981 72.4 212.781 72.4C208.181 72.4 204.281 70.8 201.081 67.6C197.881 64.4 196.281 60.5 196.281 55.9V13.9C196.281 10.2 197.581 7.04999 200.181 4.44999C202.881 1.74999 206.081 0.39999 209.781 0.39999ZM297.525 0.39999H303.525C307.225 0.39999 310.375 1.74999 312.975 4.44999C315.675 7.04999 317.025 10.2 317.025 13.9V204.4H305.025V72.4H296.025V204.4H284.025V13.9C284.025 10.2 285.325 7.04999 287.925 4.44999C290.625 1.74999 293.825 0.39999 297.525 0.39999ZM297.525 12.4C296.525 12.4 296.025 12.9 296.025 13.9V60.4H305.025V13.9C305.025 12.9 304.525 12.4 303.525 12.4H297.525ZM326.799 0.39999H329.799H338.799L347.799 37V0.39999H359.799V204.4H347.799V72.55L338.799 37V204.4H326.799V0.39999ZM369.572 0.39999H389.072C392.772 0.39999 395.922 1.74999 398.522 4.44999C401.222 7.04999 402.572 10.2 402.572 13.9V190.9C402.572 194.6 401.222 197.75 398.522 200.35C395.922 203.05 392.772 204.4 389.072 204.4H369.572V0.39999ZM381.572 12.4V192.4H389.072C390.072 192.4 390.572 191.9 390.572 190.9V13.9C390.572 12.9 390.072 12.4 389.072 12.4H381.572ZM470.816 0.39999H476.816C480.516 0.39999 483.666 1.74999 486.266 4.44999C488.966 7.04999 490.316 10.2 490.316 13.9V36.4H478.316V13.9C478.316 12.9 477.816 12.4 476.816 12.4H470.816C469.816 12.4 469.316 12.9 469.316 13.9V55.9C469.316 57.1 469.766 58.15 470.666 59.05C471.566 59.95 472.616 60.4 473.816 60.4C478.416 60.4 482.316 62 485.516 65.2C488.716 68.4 490.316 72.3 490.316 76.9V190.9C490.316 194.6 488.966 197.75 486.266 200.35C483.666 203.05 480.516 204.4 476.816 204.4H470.816C467.116 204.4 463.916 203.05 461.216 200.35C458.616 197.75 457.316 194.6 457.316 190.9V87.4H469.316V190.9C469.316 191.9 469.816 192.4 470.816 192.4H476.816C477.816 192.4 478.316 191.9 478.316 190.9V76.9C478.316 75.7 477.866 74.65 476.966 73.75C476.066 72.85 475.016 72.4 473.816 72.4C469.216 72.4 465.316 70.8 462.116 67.6C458.916 64.4 457.316 60.5 457.316 55.9V13.9C457.316 10.2 458.616 7.04999 461.216 4.44999C463.916 1.74999 467.116 0.39999 470.816 0.39999ZM500.09 0.39999H512.09V60.4H521.09V0.39999H533.09V204.4H521.09V72.4H512.09V204.4H500.09V0.39999ZM556.363 0.39999H562.363C566.063 0.39999 569.213 1.74999 571.813 4.44999C574.513 7.04999 575.863 10.2 575.863 13.9V204.4H563.863V72.4H554.863V204.4H542.863V13.9C542.863 10.2 544.163 7.04999 546.763 4.44999C549.463 1.74999 552.663 0.39999 556.363 0.39999ZM556.363 12.4C555.363 12.4 554.863 12.9 554.863 13.9V60.4H563.863V13.9C563.863 12.9 563.363 12.4 562.363 12.4H556.363ZM585.637 0.39999H597.637V61.3C601.637 58.3 604.287 55.85 605.587 53.95C607.287 51.45 608.137 48.55 608.137 45.25V0.39999H620.137V41.65C620.137 47.95 619.587 52.35 618.487 54.85C617.387 57.25 615.387 59.95 612.487 62.95C614.887 64.55 616.737 66.6 618.037 69.1C619.437 71.5 620.137 74.1 620.137 76.9V204.4H608.137V76.9C608.137 75.7 607.687 74.65 606.787 73.75C605.887 72.85 604.837 72.4 603.637 72.4H597.637V204.4H585.637V0.39999ZM629.875 0.39999H662.875V12.4H641.875V60.4H662.875V72.4H641.875V192.4H662.875V204.4H629.875V0.39999ZM686.148 0.39999H692.148C695.848 0.39999 698.998 1.74999 701.598 4.44999C704.298 7.04999 705.648 10.2 705.648 13.9V36.4H693.648V13.9C693.648 12.9 693.148 12.4 692.148 12.4H686.148C685.148 12.4 684.648 12.9 684.648 13.9V55.9C684.648 57.1 685.098 58.15 685.998 59.05C686.898 59.95 687.948 60.4 689.148 60.4C693.748 60.4 697.648 62 700.848 65.2C704.048 68.4 705.648 72.3 705.648 76.9V190.9C705.648 194.6 704.298 197.75 701.598 200.35C698.998 203.05 695.848 204.4 692.148 204.4H686.148C682.448 204.4 679.248 203.05 676.548 200.35C673.948 197.75 672.648 194.6 672.648 190.9V87.4H684.648V190.9C684.648 191.9 685.148 192.4 686.148 192.4H692.148C693.148 192.4 693.648 191.9 693.648 190.9V76.9C693.648 75.7 693.198 74.65 692.298 73.75C691.398 72.85 690.348 72.4 689.148 72.4C684.548 72.4 680.648 70.8 677.448 67.6C674.248 64.4 672.648 60.5 672.648 55.9V13.9C672.648 10.2 673.948 7.04999 676.548 4.44999C679.248 1.74999 682.448 0.39999 686.148 0.39999Z" fill="white"/>
</g>
</svg>
