<svg width="31" height="21" viewBox="0 0 31 21" fill="none" xmlns="http://www.w3.org/2000/svg">
<path id="Vector" d="M30.9992 18.7248C30.9021 18.9991 30.8374 19.2889 30.7015 19.5438C30.2138 20.4578 29.4179 20.9332 28.3551 20.9971C28.2751 21.0018 28.1942 20.9994 28.1133 20.9994C19.691 20.9994 11.2679 21.0002 2.84555 20.9986C1.49562 20.9986 0.425544 20.2404 0.101204 19.0458C0.0356895 18.8042 0.00576289 18.5479 0.00495406 18.2977C-0.000707723 13.0985 -0.00151655 7.89928 0.00252758 2.70005C0.00333641 1.13608 1.18584 0.0022547 2.81563 0.00147544C11.2687 -0.000862336 19.7217 -8.30762e-05 28.1748 0.00147544C29.5951 0.00147544 30.6312 0.806451 30.9482 2.14054C30.9596 2.1873 30.9822 2.23094 31 2.27614C30.9992 7.75823 30.9992 13.2411 30.9992 18.7248ZM3.16747 1.76416C3.26938 1.86702 3.33085 1.93092 3.39394 1.99171C7.13314 5.60513 10.8812 9.21077 14.6027 12.8421C15.1373 13.3634 15.879 13.3494 16.3934 12.8476C20.1156 9.21778 23.8637 5.61137 27.6021 1.99794C27.6701 1.93248 27.7323 1.86157 27.8245 1.76494C19.5939 1.76416 11.4094 1.76416 3.16747 1.76416ZM3.15453 19.2227C11.4102 19.2227 19.598 19.2227 27.8448 19.2227C25.2234 16.7197 22.6456 14.2573 20.0533 11.7823C19.9943 11.8369 19.9142 11.9078 19.8374 11.9818C19.0819 12.7112 18.3305 13.4445 17.5719 14.1708C16.3829 15.31 14.6164 15.3085 13.4291 14.1708C12.9713 13.732 12.5183 13.2886 12.0621 12.8484C11.686 12.4852 11.3083 12.1229 10.9492 11.7777C8.35447 14.2565 5.77674 16.7189 3.15453 19.2227ZM1.83452 3.07566C1.83452 8.00759 1.83452 12.9933 1.83452 17.919C4.40902 15.462 7.00535 12.9832 9.60977 10.4973C7.00778 8.01305 4.41144 5.53422 1.83452 3.07566ZM29.1575 17.9284C29.1575 12.9956 29.1575 8.00759 29.1575 3.11306C26.6 5.55292 24.0028 8.03019 21.3928 10.5191C23.9883 12.9956 26.5806 15.4698 29.1575 17.9284Z" fill="white"/>
</svg>
