<svg width="21" height="22" viewBox="0 0 21 22" fill="none" xmlns="http://www.w3.org/2000/svg">
<g clip-path="url(#clip0_65_79)">
<path d="M16.4876 18.3474C16.1306 18.3474 15.794 18.3474 15.4014 18.3474C15.4014 18.6483 15.4021 18.9469 15.4014 19.2456C15.3979 20.9196 14.3768 21.9964 12.784 21.9979C9.39051 22.0001 5.9963 22.0001 2.6028 21.9979C1.03376 21.9964 0.00570308 20.9138 0.00150406 19.2661C0.000804221 18.8635 0.00290373 18.4609 0.000804221 18.0583C-0.000595452 17.7589 0.134473 17.6037 0.424205 17.6037C0.506086 17.6037 0.587267 17.6037 0.669148 17.6037C7.01317 17.6037 13.3579 17.6037 19.7019 17.6037C19.8069 17.6037 19.9119 17.5993 20.0168 17.6059C20.583 17.6425 21.0057 18.1066 20.9987 18.6798C20.9917 19.2727 20.5424 19.7594 19.9629 19.725C19.1728 19.6775 18.3792 19.6152 17.5989 19.4842C17.0138 19.3861 16.6632 18.9345 16.4876 18.3474ZM0.70554 18.3548C0.70554 18.7639 0.694342 19.1299 0.707639 19.4945C0.744031 20.4775 1.47466 21.2549 2.42014 21.2578C5.93962 21.2703 9.4598 21.2717 12.9793 21.2564C13.7351 21.2534 14.2824 20.8421 14.5707 20.1013C14.7926 19.5311 14.6806 18.9367 14.6946 18.3548C10.0085 18.3548 5.37345 18.3548 0.70554 18.3548ZM17.2945 18.3408C17.2819 18.3701 17.2686 18.3994 17.256 18.4287C17.3973 18.5378 17.5289 18.7215 17.6822 18.7427C18.4415 18.851 19.2057 18.9286 19.9706 18.9813C20.0721 18.9887 20.2674 18.7925 20.2723 18.6841C20.2765 18.5736 20.1008 18.3591 20 18.3562C19.0986 18.3299 18.1966 18.3408 17.2945 18.3408Z" fill="#72A530"/>
<path d="M4.12074 14.7182C3.66095 15.0293 3.15287 15.1625 2.73857 15.5512C2.1605 16.0936 1.25491 16.0043 0.644656 15.4809C0.0343983 14.9576 -0.174853 14.0858 0.15757 13.3362C0.254147 13.1188 0.263245 12.9578 0.161769 12.7352C-0.156657 12.0362 0.00990402 11.2288 0.530582 10.6827C0.644656 10.5627 0.739134 10.4009 0.790922 10.2399C1.00227 9.58036 1.39978 9.13605 2.04503 8.92962C2.19969 8.88058 2.35366 8.77371 2.46913 8.65366C3.00171 8.09735 3.77363 7.93046 4.46296 8.2701C4.64842 8.3616 4.78489 8.36672 4.97455 8.27376C5.77166 7.88288 6.67725 8.15591 7.16363 8.90766C7.63812 9.64112 7.52055 10.6439 6.8984 11.2793C6.79692 11.3825 6.72904 11.5275 6.66605 11.6636C6.56107 11.892 6.4722 12.1284 6.35462 12.4161C6.75563 12.7682 7.18813 13.1481 7.62063 13.528C7.71021 13.6063 7.80188 13.6817 7.88796 13.7637C8.07552 13.9423 8.10071 14.1458 7.92086 14.3368C7.27491 15.0227 6.62616 15.7057 5.96831 16.3791C5.73107 16.6221 5.52742 16.4904 5.35036 16.2664C4.94375 15.7511 4.53435 15.2379 4.12074 14.7182ZM4.02137 13.1591C3.96818 12.5918 4.3048 12.2419 4.84577 12.3026C5.44484 12.3693 5.92702 11.9491 6.0243 11.3196C6.05019 11.1512 6.15377 10.9565 6.28044 10.8511C6.77522 10.4397 6.90749 9.76483 6.55688 9.27293C6.21466 8.79274 5.54071 8.68953 5.06412 9.07749C4.81848 9.27805 4.63652 9.28318 4.38738 9.08261C3.8744 8.66904 3.24805 8.7964 2.85264 9.32636C2.75256 9.46105 2.56921 9.57817 2.40894 9.60525C1.87637 9.69456 1.54115 10.0437 1.45157 10.603C1.42427 10.772 1.3165 10.966 1.18703 11.0707C0.649555 11.5055 0.536181 12.1394 0.955383 12.6965C1.14014 12.9424 1.14014 13.1254 0.953984 13.3713C0.555077 13.8984 0.643956 14.5711 1.13454 14.9517C1.61883 15.328 2.23119 15.1955 2.63779 14.6604C2.73927 14.5272 2.92472 14.4144 3.08569 14.3888C3.68755 14.2929 4.08085 13.7988 4.02137 13.1591ZM7.14824 14.0726C6.72134 13.6985 6.31403 13.3369 5.89903 12.9856C5.83674 12.9329 5.73177 12.897 5.65479 12.9095C5.35036 12.9614 5.04873 13.0361 4.77509 13.0954C4.7212 13.3853 4.66452 13.6685 4.61693 13.9533C4.60433 14.0301 4.58544 14.1385 4.62323 14.1868C4.98364 14.6553 5.35596 15.1142 5.71427 15.5629C6.20556 15.0535 6.66465 14.5755 7.14824 14.0726Z" fill="#72A530"/>
<path d="M17.664 10.0919C17.6528 10.7836 17.347 11.6356 16.6961 12.3266C15.5176 13.5776 14.3363 14.8257 13.1353 16.0525C12.0275 17.1841 10.2891 17.1424 9.20436 15.9917C8.13501 14.8564 8.12801 13.0586 9.19526 11.9035C9.61656 11.4475 10.0456 10.9995 10.4823 10.5589C10.6355 10.4037 10.702 10.2551 10.6859 10.0187C10.5487 7.93762 12.1038 6.19475 14.1256 6.14351C16.0649 6.09447 17.6731 7.76341 17.664 10.0919ZM14.1214 6.87404C13.9535 6.89966 13.6938 6.91283 13.4489 6.98091C12.1234 7.34763 11.2563 8.63228 11.3976 10.0589C11.4368 10.4542 11.3445 10.7236 11.0673 10.9871C10.611 11.4212 10.1848 11.8911 9.75373 12.3537C8.89713 13.2724 8.88663 14.6302 9.72294 15.4991C10.5501 16.3592 11.8434 16.3584 12.7035 15.4727C13.866 14.2752 15.0284 13.0769 16.1614 11.8487C17.0117 10.9263 17.2056 9.81811 16.729 8.6418C16.2664 7.50135 15.3867 6.93845 14.1214 6.87404Z" fill="#72A530"/>
<path d="M7.35329 5.07194C7.46106 5.42329 7.56044 5.72927 7.64862 6.0389C7.75709 6.41807 7.63392 6.61571 7.26861 6.6179C6.16146 6.62522 5.05502 6.62449 3.94788 6.61863C3.57697 6.61644 3.4482 6.42392 3.55317 6.05134C3.64135 5.73878 3.74213 5.42915 3.84431 5.09682C3.76522 5.09682 3.70434 5.08292 3.65255 5.09902C2.41384 5.48405 1.20032 4.23088 1.43337 2.63807C1.60763 1.44638 2.40334 0.771487 3.4237 0.406955C5.02213 -0.163998 6.63525 -0.161802 8.18539 0.589953C9.17986 1.0716 9.83211 1.87167 9.79502 3.09776C9.75583 4.37289 8.83204 5.28861 7.77039 5.14148C7.64512 5.12391 7.52125 5.09975 7.35329 5.07194ZM6.8571 5.87713C6.67934 5.30983 6.49459 4.785 6.36022 4.24625C6.32383 4.09985 6.39101 3.85683 6.49669 3.75582C6.65905 3.5999 6.84311 3.7097 6.96558 3.8927C6.97887 3.91246 6.99147 3.93369 7.00687 3.95199C7.32109 4.34287 7.7382 4.48561 8.19799 4.39558C8.67108 4.30261 8.91672 3.92271 9.03359 3.46082C9.22675 2.69736 8.93912 1.97488 8.25538 1.47054C7.65562 1.02915 6.97048 0.856398 6.25384 0.794911C5.27967 0.712196 4.31809 0.760507 3.41251 1.19385C2.77076 1.50128 2.27737 1.96756 2.12901 2.72664C1.91905 3.8012 2.72667 4.66641 3.64415 4.33482C3.8793 4.24991 4.05356 3.99298 4.2768 3.85171C4.39788 3.77558 4.59873 3.70604 4.69951 3.76167C4.80168 3.81804 4.84927 4.02665 4.87307 4.17744C4.88776 4.2726 4.81358 4.3824 4.78139 4.48634C4.63932 4.94311 4.49795 5.39914 4.35029 5.87786C5.19779 5.87713 6.0005 5.87713 6.8571 5.87713Z" fill="#72A530"/>
<path d="M12.5944 3.67891C12.355 3.67891 12.1493 3.67891 11.9449 3.67891C11.7847 2.11318 13.1983 0.0350537 15.3748 0.0416416C15.3748 0.263435 15.3748 0.486692 15.3748 0.750941C14.6372 0.790469 13.9688 1.05399 13.4286 1.62055C12.8946 2.18052 12.6322 2.86274 12.5944 3.67891Z" fill="#72A530"/>
<path d="M10.8378 6.26733C10.8378 6.5067 10.8378 6.72263 10.8378 6.96565C9.80482 7.09156 9.20646 7.69325 9.08539 8.80002C8.86214 8.80002 8.64589 8.80002 8.43104 8.80002C8.34356 7.48317 9.478 6.27905 10.8378 6.26733Z" fill="#72A530"/>
<path d="M1.76438 7.68951C1.66361 6.82356 1.19262 6.34045 0.363312 6.23577C0.363312 6.00154 0.363312 5.78487 0.363312 5.57112C1.13243 5.40203 2.43973 6.257 2.43973 7.68951C2.22838 7.68951 2.01563 7.68951 1.76438 7.68951Z" fill="#72A530"/>
<path d="M16.1145 0.73629C16.1145 0.498393 16.1145 0.283187 16.1145 0.0489502C16.3336 0.0489502 16.5386 0.0489502 16.7731 0.0489502C16.7731 0.262692 16.7731 0.485217 16.7731 0.73629C16.5722 0.73629 16.3588 0.73629 16.1145 0.73629Z" fill="#72A530"/>
<path d="M14.6827 16.8555C14.4615 16.8555 14.2558 16.8555 14.0255 16.8555C14.0255 16.6316 14.0255 16.4083 14.0255 16.1616C14.2369 16.1616 14.4503 16.1616 14.6827 16.1616C14.6827 16.3834 14.6827 16.5986 14.6827 16.8555Z" fill="#72A530"/>
<path d="M15.4672 9.0167C15.4693 9.61766 15.0074 10.1118 14.4349 10.1213C13.8506 10.1308 13.3656 9.62718 13.3684 9.01377C13.3719 8.41354 13.8387 7.93262 14.4195 7.93262C15.0004 7.93335 15.4644 8.41354 15.4672 9.0167ZM14.8157 9.07745C14.815 9.02475 14.8136 8.97205 14.8129 8.91934C14.6708 8.83443 14.5203 8.67193 14.3895 8.68803C14.2726 8.70267 14.1067 8.90251 14.0878 9.03939C14.057 9.26191 14.2404 9.4127 14.4461 9.36659C14.5826 9.33584 14.6939 9.17773 14.8157 9.07745Z" fill="#72A530"/>
</g>
<defs>
<clipPath id="clip0_65_79">
<rect width="21" height="22" fill="white"/>
</clipPath>
</defs>
</svg>
