<svg width="17" height="18" viewBox="0 0 17 18" fill="none" xmlns="http://www.w3.org/2000/svg">
<g clip-path="url(#clip0_65_104)">
<path d="M0.760538 17.2829C0.885946 17.2829 0.99864 17.2829 1.11133 17.2829C2.95084 17.2829 4.79035 17.2829 6.63044 17.2834C6.7362 17.2834 6.86912 17.2559 6.94078 17.3059C7.0581 17.388 7.20893 17.5246 7.20836 17.6376C7.20778 17.7522 7.05636 17.8849 6.94078 17.9725C6.87952 18.0192 6.75469 17.9894 6.65876 17.99C4.74181 17.9905 2.82543 17.9905 0.908485 17.99C0.258329 17.9911 0 17.7393 0 17.1058C0 14.2387 0 11.3721 0 8.5049C0 7.89055 0.260063 7.63874 0.894615 7.63874C2.68616 7.63818 4.4777 7.63874 6.26924 7.63874C6.37384 7.63874 6.47845 7.63874 6.58305 7.63874C6.59287 7.62244 6.60212 7.60614 6.61195 7.58984C6.53335 7.53475 6.45417 7.48023 6.37558 7.42459C4.68517 6.22005 3.82176 4.59002 3.76744 2.56092C3.74952 1.8943 3.88013 1.24004 4.10841 0.606575C4.29912 0.0759729 4.71638 -0.117382 5.27349 0.0787832C6.55415 0.529008 7.57996 1.29793 8.33761 2.40185C8.38442 2.47043 8.43296 2.53788 8.49364 2.62444C8.67511 2.38555 8.83692 2.15735 9.01435 1.94095C9.73501 1.0613 10.6562 0.454814 11.7381 0.0731624C12.2888 -0.121317 12.7061 0.0799074 12.8933 0.620065C13.7775 3.16853 12.8569 5.89742 10.5897 7.44876C10.5239 7.49372 10.462 7.54431 10.3355 7.6393C10.514 7.6393 10.6158 7.6393 10.7175 7.6393C12.5281 7.6393 14.3387 7.63874 16.1499 7.63986C16.722 7.63986 16.9994 7.90797 16.9994 8.46556C17.0006 11.3608 17 14.2561 16.9994 17.1514C16.9994 17.723 16.7214 17.9922 16.1325 17.9922C14.1867 17.9933 12.2414 17.9928 10.2956 17.9922C10.2095 17.9922 10.0922 18.017 10.043 17.9731C9.93439 17.8764 9.79627 17.7455 9.79049 17.6235C9.78586 17.5201 9.93208 17.3818 10.0459 17.311C10.1309 17.2587 10.2702 17.2857 10.3857 17.2851C12.216 17.284 14.0457 17.2846 15.876 17.2846C15.9898 17.2846 16.1042 17.2846 16.24 17.2846C16.24 14.2977 16.24 11.3338 16.24 8.3537C11.0798 8.3537 5.93174 8.3537 0.761116 8.3537C0.760538 11.3248 0.760538 14.2876 0.760538 17.2829ZM8.52658 6.99122C8.54739 6.99179 8.56877 6.99235 8.58958 6.99347C8.63986 6.89679 8.69187 6.80068 8.74041 6.70288C9.20679 5.76983 9.66912 4.83509 10.143 3.90541C10.2025 3.7885 10.3066 3.64854 10.4204 3.61369C10.5296 3.58053 10.7545 3.63562 10.792 3.71431C10.8544 3.84415 10.8608 4.04818 10.7984 4.17915C10.3349 5.14423 9.84886 6.09921 9.37034 7.05755C9.327 7.14467 9.29175 7.23573 9.23684 7.36051C9.31775 7.33184 9.35243 7.32229 9.38595 7.30767C11.8242 6.24085 13.0967 3.39055 12.2426 0.928084C12.1732 0.727422 12.1016 0.69707 11.8953 0.769578C9.59573 1.57953 8.10702 3.90035 8.39077 6.26052C8.42083 6.50615 8.48093 6.74784 8.52658 6.99122ZM7.5736 5.32803C7.73946 4.72043 7.90995 4.11113 8.0683 3.49847C8.08621 3.42821 8.05443 3.33266 8.01686 3.26352C7.37537 2.0944 6.42066 1.27039 5.15097 0.781943C4.88918 0.681331 4.80711 0.748781 4.73661 0.991036C4.21301 2.79587 4.54416 4.4332 5.74391 5.89742C6.27155 6.541 6.93674 7.0182 7.77125 7.37344C7.70652 7.22898 7.66896 7.13736 7.62503 7.04856C7.15114 6.09864 6.67552 5.14986 6.2022 4.19994C6.06292 3.92003 6.10569 3.70306 6.30854 3.61313C6.52006 3.51927 6.71019 3.61201 6.85005 3.88686C7.09624 4.37194 7.33781 4.8587 7.5736 5.32803Z" fill="#72A530"/>
<path d="M5.14577 15.4757C5.14577 15.6909 5.15733 15.8286 5.14289 15.9635C5.12035 16.1732 5.00765 16.3193 4.77475 16.3177C4.54301 16.3154 4.41471 16.171 4.4124 15.9596C4.40315 15.1553 4.40431 14.3509 4.41182 13.5472C4.41413 13.3325 4.54994 13.1874 4.77071 13.1779C5.05735 13.1655 5.34978 13.1605 5.63238 13.2021C6.09356 13.2695 6.41315 13.5933 6.48076 14.0041C6.55069 14.4302 6.36056 14.7984 5.94735 15.0333C5.90863 15.0552 5.86933 15.0766 5.8046 15.1126C5.99589 15.3115 6.17389 15.492 6.34611 15.678C6.52526 15.8714 6.53798 16.0821 6.38541 16.2255C6.2311 16.3699 6.01323 16.3514 5.82656 16.1676C5.61735 15.9613 5.41451 15.7494 5.14577 15.4757ZM5.16947 13.9097C5.16947 14.0862 5.16947 14.2638 5.16947 14.4397C5.57979 14.4634 5.77455 14.3678 5.76819 14.1581C5.76183 13.9479 5.5665 13.8653 5.16947 13.9097Z" fill="#72A530"/>
<path d="M13.0725 15.0766C13.0725 15.3666 13.0754 15.6359 13.0719 15.9051C13.0679 16.1687 12.9332 16.3255 12.7119 16.3177C12.4599 16.3087 12.357 16.1563 12.3564 15.9281C12.3547 15.1418 12.3553 14.3554 12.3564 13.5697C12.357 13.3381 12.4709 13.1919 12.7142 13.1779C12.924 13.1661 13.0684 13.3431 13.0725 13.5978C13.0759 13.8389 13.0731 14.08 13.0731 14.3296C13.1592 14.3403 13.2146 14.3532 13.2695 14.3538C13.5285 14.356 13.7874 14.3549 14.0965 14.3549C14.0965 14.0969 14.0937 13.8586 14.0971 13.6202C14.1017 13.3313 14.2358 13.17 14.4595 13.1762C14.6779 13.1818 14.808 13.3488 14.8085 13.6343C14.8103 14.374 14.8103 15.1131 14.8085 15.8528C14.808 16.1648 14.6837 16.3233 14.4468 16.3205C14.2104 16.3177 14.0989 16.1676 14.096 15.8416C14.0937 15.5914 14.0954 15.3413 14.0954 15.0771C13.7475 15.0766 13.4331 15.0766 13.0725 15.0766Z" fill="#72A530"/>
<path d="M7.3407 10.761C7.3407 10.9482 7.34764 11.1359 7.33955 11.3225C7.31585 11.8745 6.9142 12.291 6.37385 12.3303C5.81038 12.3719 5.32666 12.0532 5.25847 11.5018C5.19836 11.0156 5.19894 10.5103 5.26136 10.0241C5.33186 9.47327 5.80575 9.17088 6.38714 9.21078C6.90091 9.24619 7.3014 9.64527 7.33723 10.1714C7.35053 10.367 7.33955 10.5643 7.33955 10.761C7.34012 10.761 7.34012 10.761 7.3407 10.761ZM5.95139 10.7711C5.95081 10.7711 5.95081 10.7711 5.95023 10.7711C5.95023 10.9487 5.94792 11.1263 5.95081 11.3034C5.9537 11.5046 6.07217 11.6243 6.26751 11.6322C6.46631 11.6406 6.59866 11.5221 6.60444 11.3253C6.61542 10.9521 6.61657 10.5778 6.60328 10.2045C6.59634 10.0084 6.45071 9.86898 6.26462 9.9117C6.14268 9.93924 6.00109 10.091 5.9641 10.2141C5.91325 10.3867 5.95139 10.5839 5.95139 10.7711Z" fill="#72A530"/>
<path d="M10.5522 16.3234C10.1523 16.3194 9.79685 16.2014 9.49691 15.9384C9.3218 15.7849 9.22875 15.6112 9.38942 15.3993C9.52696 15.2178 9.71998 15.2515 9.97138 15.3914C10.1754 15.505 10.4239 15.5612 10.6597 15.5921C10.7383 15.6028 10.8747 15.4713 10.914 15.3768C10.9336 15.3302 10.8088 15.1885 10.7209 15.1453C10.4903 15.0317 10.243 14.9508 10.0049 14.8519C9.64717 14.7035 9.43854 14.4117 9.44432 14.0762C9.4501 13.7204 9.68935 13.3961 10.0511 13.2612C10.5487 13.0757 10.9966 13.2016 11.411 13.4849C11.5965 13.6119 11.63 13.7968 11.5069 13.9784C11.3867 14.1566 11.2093 14.1436 11.0191 14.0734C10.8261 14.002 10.6279 13.9329 10.4256 13.9031C10.3551 13.8924 10.2661 14.0026 10.1852 14.0571C10.2465 14.1161 10.2973 14.1959 10.3713 14.2308C10.5609 14.3201 10.7614 14.387 10.9556 14.4674C11.4861 14.6877 11.7346 15.0784 11.6375 15.5337C11.5393 15.9979 11.0977 16.3194 10.5522 16.3234Z" fill="#72A530"/>
<path d="M10.0066 10.7863C10.0066 10.9735 10.0107 11.1607 10.0061 11.3478C9.99276 11.8756 9.59053 12.2899 9.05596 12.3304C8.49595 12.3725 7.98392 12.0319 7.93133 11.5075C7.88221 11.0173 7.88047 10.5143 7.93249 10.0241C7.98854 9.4913 8.50462 9.16417 9.09179 9.21307C9.60267 9.25579 9.99507 9.67566 10.0066 10.1967C10.0101 10.3934 10.0066 10.5896 10.0066 10.7863ZM8.62425 10.7504C8.62483 10.7504 8.62483 10.7504 8.62541 10.7504C8.62541 10.9375 8.58784 11.1348 8.63812 11.3079C8.67453 11.4338 8.80861 11.5862 8.9317 11.6221C9.12415 11.6789 9.2773 11.5255 9.28886 11.345C9.31428 10.9634 9.31428 10.5778 9.29059 10.1961C9.27961 10.0163 9.1386 9.8825 8.93402 9.90162C8.73752 9.9196 8.62945 10.0489 8.62541 10.245C8.62136 10.4137 8.62425 10.5823 8.62425 10.7504Z" fill="#72A530"/>
<path d="M7.81516 13.8934C7.81516 14.075 7.81516 14.2138 7.81516 14.392C8.00125 14.392 8.18041 14.3875 8.35956 14.3931C8.61847 14.401 8.79647 14.5505 8.78144 14.7573C8.76353 14.994 8.60229 15.1002 8.37517 15.1131C8.19543 15.1232 8.01455 15.1154 7.82094 15.1154C7.82094 15.2896 7.82094 15.4346 7.82094 15.6134C8.04171 15.6134 8.25091 15.61 8.46012 15.6145C8.69533 15.6196 8.84964 15.7213 8.8479 15.9681C8.84559 16.2176 8.68262 16.3104 8.45029 16.3126C8.13302 16.316 7.81516 16.3194 7.49789 16.3115C7.2176 16.3047 7.10086 16.1884 7.09912 15.9096C7.0945 15.1418 7.0945 14.3746 7.09912 13.6068C7.10086 13.3117 7.21297 13.1987 7.51638 13.1897C7.82383 13.1801 8.13244 13.1807 8.43989 13.1897C8.71903 13.1981 8.86119 13.3302 8.84848 13.5556C8.83345 13.8209 8.65488 13.8968 8.41446 13.8951C8.22317 13.8923 8.03304 13.8934 7.81516 13.8934Z" fill="#72A530"/>
<path d="M2.92368 14.3835C3.12826 14.3835 3.30106 14.3785 3.47328 14.3847C3.70271 14.3931 3.82985 14.5117 3.82754 14.7377C3.82523 14.9535 3.69578 15.0608 3.48195 15.0698C3.30164 15.0771 3.12133 15.0715 2.90345 15.0715C2.90345 15.3689 2.90807 15.6375 2.9023 15.9051C2.89594 16.1732 2.75955 16.325 2.5359 16.3081C2.29028 16.2901 2.18915 16.144 2.1903 15.9113C2.19261 15.135 2.19261 14.3588 2.19088 13.5826C2.1903 13.3285 2.32438 13.197 2.57462 13.1897C2.90114 13.1801 3.22824 13.1807 3.55476 13.1908C3.779 13.1981 3.92347 13.3246 3.9177 13.5449C3.91192 13.7613 3.76801 13.8822 3.54263 13.8895C3.34267 13.8957 3.14271 13.8906 2.92368 13.8906C2.92368 14.0609 2.92368 14.2042 2.92368 14.3835Z" fill="#72A530"/>
<path d="M3.87493 9.96958C3.78709 9.9589 3.69809 9.97464 3.66168 9.93922C3.54899 9.82962 3.38601 9.70484 3.3785 9.57837C3.37214 9.47382 3.5409 9.29621 3.66457 9.26192C3.85933 9.20796 4.08356 9.22876 4.29161 9.25236C4.48579 9.27429 4.59559 9.41143 4.59617 9.60479C4.59964 10.3805 4.60022 11.1561 4.59617 11.9318C4.59502 12.1544 4.45285 12.2955 4.23844 12.2938C4.00843 12.2921 3.87609 12.1403 3.87551 11.9059C3.87435 11.3641 3.87493 10.8217 3.87493 10.2798C3.87493 10.1775 3.87493 10.0764 3.87493 9.96958Z" fill="#72A530"/>
<path d="M13.1782 9.50643C13.1297 9.64808 13.1083 9.72902 13.0754 9.80546C12.7546 10.5541 12.4304 11.3011 12.1108 12.0504C12.0282 12.2443 11.9028 12.3635 11.6722 12.3258C11.4485 12.2893 11.3191 12.083 11.4138 11.8559C11.7525 11.0443 12.1039 10.2371 12.457 9.43111C12.5344 9.25406 12.7014 9.16637 12.8812 9.23888C13.0031 9.28722 13.0892 9.42156 13.1782 9.50643Z" fill="#72A530"/>
<path d="M11.4086 9.90662C11.1966 9.90494 11.0324 9.74924 11.0521 9.55027C11.0723 9.34623 11.1948 9.22707 11.411 9.22145C11.615 9.21583 11.7774 9.38389 11.7693 9.58118C11.7618 9.77229 11.6109 9.90831 11.4086 9.90662Z" fill="#72A530"/>
<path d="M13.0939 12.3319C12.9084 12.3168 12.7818 12.2156 12.7749 11.9998C12.7679 11.7912 12.9188 11.6412 13.1274 11.6428C13.3366 11.6451 13.4816 11.7974 13.4736 12.0065C13.4655 12.2038 13.325 12.3336 13.0939 12.3319Z" fill="#72A530"/>
<path d="M8.47457 17.2917C8.71209 17.2934 8.8583 17.4463 8.84848 17.656C8.83808 17.8729 8.70458 17.9764 8.49653 17.9859C8.29194 17.9955 8.14053 17.8291 8.15035 17.6228C8.16076 17.4058 8.29541 17.312 8.47457 17.2917Z" fill="#72A530"/>
</g>
<defs>
<clipPath id="clip0_65_104">
<rect width="17" height="18" fill="white"/>
</clipPath>
</defs>
</svg>
