<svg width="24" height="18" viewBox="0 0 24 18" fill="none" xmlns="http://www.w3.org/2000/svg">
<g clip-path="url(#clip0_65_118)">
<path d="M6.92912 12.353C5.99044 12.353 5.10575 12.353 4.22105 12.353C3.83344 12.353 3.44582 12.3508 3.05895 12.3537C2.74931 12.3559 2.54688 12.2351 2.54238 11.9141C2.53788 11.591 2.73956 11.4666 3.0492 11.4666C4.24879 11.4666 5.44913 11.4659 6.64872 11.4651C6.72219 11.4651 6.79492 11.4571 6.89763 11.4506C6.89763 10.6647 6.89763 9.89619 6.89763 9.07824C6.45154 9.07824 6.00619 9.07824 5.56009 9.07824C5.12299 9.07824 4.68514 9.08115 4.24804 9.07606C3.96389 9.07315 3.7997 8.92251 3.79145 8.65107C3.78245 8.35999 3.9459 8.19698 4.25029 8.1948C4.98729 8.19043 5.72504 8.19189 6.46203 8.19116C6.59699 8.19116 6.73194 8.19116 6.89763 8.19116C6.89763 7.63228 6.89763 7.10614 6.89763 6.53124C6.76193 6.53124 6.62922 6.53124 6.49577 6.53124C4.9588 6.53124 3.42108 6.53124 1.88411 6.53124C1.79639 6.53124 1.70942 6.5327 1.6217 6.53052C1.25957 6.52324 1.05714 6.36678 1.05264 6.09243C1.04814 5.8159 1.24757 5.64707 1.61045 5.64562C3.12268 5.64198 4.63491 5.64343 6.14714 5.64343C6.39381 5.64343 6.63972 5.64343 6.92987 5.64343C6.92987 5.33416 6.93587 5.07 6.92837 4.80584C6.92087 4.54822 7.02959 4.37648 7.2665 4.25059C9.8936 2.85556 12.5147 1.45107 15.1485 0.0676908C15.3127 -0.0181794 15.6074 -0.021818 15.7701 0.0633245C18.4152 1.4518 21.0513 2.85556 23.6769 4.27679C23.8343 4.36193 23.976 4.61736 23.982 4.79783C24.0127 5.70675 24 6.61639 23.994 7.52603C23.9918 7.87606 23.8163 8.06672 23.5262 8.06672C23.2413 8.06672 23.0651 7.8746 23.0591 7.5253C23.0508 6.97952 23.0576 6.43373 23.0553 5.88795C23.0546 5.77297 23.0433 5.65726 23.0328 5.48625C22.3206 5.86611 21.6518 6.21251 20.998 6.58291C20.9118 6.63167 20.8623 6.80195 20.8601 6.91766C20.8473 7.58425 20.8436 8.25156 20.8586 8.91887C20.8646 9.21069 20.7529 9.39553 20.489 9.5287C19.9911 9.77976 19.5045 10.0527 19.009 10.3088C18.5231 10.5599 18.2067 10.375 18.2015 9.83943C18.1962 9.27473 18.2007 8.71002 18.2007 8.06454C17.6317 8.36654 17.1526 8.67655 16.6308 8.88322C16.0587 9.11026 15.9043 9.45083 15.917 10.041C15.9605 12.1383 15.9343 14.237 15.9343 16.3357C15.9343 16.4762 15.9343 16.6166 15.9343 16.8189C16.6638 16.4311 17.328 16.0781 17.9923 15.7245C19.5788 14.8796 21.1615 14.0296 22.7532 13.1949C22.9826 13.0748 23.0741 12.938 23.0621 12.6862C23.0418 12.2627 23.0531 11.8377 23.0576 11.4127C23.0621 11.006 23.2263 10.8044 23.5367 10.8109C23.8336 10.8175 23.9925 11.0154 23.9948 11.3975C23.9985 11.992 23.9903 12.5858 23.9985 13.1804C24.0023 13.4387 23.9025 13.6155 23.6679 13.7407C21.0303 15.1423 18.3972 16.5519 15.7528 17.9418C15.5991 18.0226 15.321 18.0197 15.1665 17.9382C12.5222 16.5482 9.8861 15.1445 7.25901 13.724C7.10006 13.6381 6.9831 13.3958 6.94337 13.2073C6.88864 12.9519 6.92912 12.6775 6.92912 12.353ZM7.86855 5.47169C7.86855 7.97721 7.8648 10.4027 7.87979 12.8282C7.88054 12.9409 8.02299 13.0952 8.13996 13.1593C9.74215 14.026 11.3519 14.8803 12.9593 15.7361C13.6221 16.089 14.2856 16.4398 14.9581 16.7964C14.9769 16.7309 14.9889 16.709 14.9889 16.6872C14.9904 14.2858 14.9949 11.8843 14.9814 9.48285C14.9806 9.36715 14.8524 9.20632 14.7384 9.14447C13.3229 8.37527 11.8992 7.62136 10.4777 6.86308C9.62819 6.40972 8.77799 5.95708 7.86855 5.47169ZM8.37912 4.69959C10.7468 5.9629 13.0305 7.18255 15.318 8.39565C15.3907 8.43422 15.5204 8.43931 15.5924 8.4022C16.2807 8.04489 16.9622 7.67594 17.6557 7.30408C17.6107 7.26551 17.5942 7.24513 17.5732 7.23422C15.3097 6.02548 13.047 4.81675 10.7805 3.61457C10.6973 3.57018 10.5541 3.55126 10.4769 3.59055C9.79539 3.93913 9.12362 4.30299 8.37912 4.69959ZM22.5478 4.69959C20.1831 3.43846 17.8994 2.22027 15.6134 1.00571C15.5474 0.970784 15.4349 0.948224 15.3765 0.978061C14.7054 1.32445 14.0397 1.68322 13.3237 2.06454C15.6719 3.31621 17.9548 4.53513 20.2408 5.7475C20.318 5.78825 20.4492 5.80862 20.5197 5.77224C21.1772 5.43604 21.8272 5.08382 22.5478 4.69959ZM11.5978 2.98655C11.7072 3.05205 11.768 3.0928 11.8317 3.127C13.9497 4.25714 16.067 5.38655 18.1858 6.51596C18.7136 6.79759 18.9205 6.76339 19.3598 6.32603C17.0761 5.10784 14.7954 3.88964 12.511 2.67946C12.4292 2.63579 12.292 2.63288 12.2051 2.66781C12.0124 2.74495 11.8347 2.85847 11.5978 2.98655ZM19.1319 9.20195C19.3449 9.08843 19.4918 9.02585 19.6208 8.93779C19.734 8.86066 19.9087 8.76023 19.9154 8.66199C19.9461 8.17661 19.9289 7.68904 19.9289 7.14325C19.6972 7.26405 19.5255 7.33464 19.3771 7.43725C19.2781 7.50565 19.1477 7.61481 19.1432 7.7116C19.1184 8.17952 19.1319 8.64962 19.1319 9.20195Z" fill="#72A530"/>
<path d="M0.779732 12.3493C0.655275 12.3493 0.530068 12.3587 0.40711 12.3471C0.142451 12.3216 0.0022492 12.1586 -0.000749769 11.9141C-0.002999 11.671 0.128206 11.4942 0.396614 11.476C0.644029 11.4593 0.893693 11.4644 1.14186 11.4709C1.42676 11.4782 1.57821 11.631 1.58046 11.9039C1.58271 12.1753 1.43651 12.3318 1.15235 12.35C1.02865 12.358 0.904189 12.3514 0.779732 12.3514C0.779732 12.3507 0.779732 12.35 0.779732 12.3493Z" fill="#72A530"/>
<path d="M2.83103 8.60736C2.82503 8.90208 2.61585 9.09129 2.34144 9.07382C2.05654 9.05563 1.91709 8.89262 1.91259 8.62482C1.90734 8.35484 2.10902 8.18165 2.39468 8.19547C2.68483 8.21076 2.80628 8.38177 2.83103 8.60736Z" fill="#72A530"/>
<path d="M23.4857 8.99023C23.7893 8.99023 24.012 9.20345 23.988 9.45452C23.9625 9.71722 23.8066 9.87441 23.5262 9.88387C23.2645 9.8926 23.0493 9.67501 23.0673 9.41959C23.0853 9.14815 23.2503 9.01134 23.4857 8.99023Z" fill="#72A530"/>
</g>
<defs>
<clipPath id="clip0_65_118">
<rect width="24" height="18" fill="white"/>
</clipPath>
</defs>
</svg>
