<svg width="18" height="19" viewBox="0 0 18 19" fill="none" xmlns="http://www.w3.org/2000/svg">
<g id="Group">
<path id="Vector" d="M8.98534 1.80132C11.3767 1.80132 11.6504 1.81605 12.6012 1.86025C13.4655 1.90444 13.9409 2.05175 14.2579 2.1696C14.6756 2.33164 14.9782 2.53788 15.2807 2.84723C15.5976 3.17131 15.7849 3.46594 15.9433 3.89314C16.0586 4.21722 16.217 4.70335 16.2459 5.58722C16.2891 6.54474 16.3035 6.83936 16.3035 9.28473C16.3035 11.7301 16.2891 12.01 16.2459 12.9822C16.2026 13.8661 16.0586 14.3522 15.9433 14.6763C15.7849 15.1035 15.5832 15.4129 15.2807 15.7222C14.9637 16.0463 14.6756 16.2378 14.2579 16.3999C13.9409 16.5177 13.4655 16.6797 12.6012 16.7092C11.6648 16.7534 11.3767 16.7681 8.98534 16.7681C6.59398 16.7681 6.32027 16.7534 5.36948 16.7092C4.50514 16.665 4.02974 16.5177 3.71281 16.3999C3.29505 16.2378 2.99253 16.0316 2.69 15.7222C2.37308 15.3981 2.1858 15.1035 2.02734 14.6763C1.91209 14.3522 1.75363 13.8661 1.72482 12.9822C1.6816 12.0247 1.66719 11.7301 1.66719 9.28473C1.66719 6.83936 1.6816 6.55947 1.72482 5.58722C1.76804 4.70335 1.91209 4.21722 2.02734 3.89314C2.1858 3.46594 2.38748 3.15658 2.69 2.84723C3.00693 2.52315 3.29505 2.33164 3.71281 2.1696C4.02974 2.05175 4.50514 1.88971 5.36948 1.86025C6.32027 1.81605 6.59398 1.80132 8.98534 1.80132ZM8.98534 0.166168C6.55076 0.166168 6.24823 0.180899 5.29745 0.225093C4.34667 0.269286 3.69841 0.431328 3.12218 0.652295C2.53154 0.887993 2.04174 1.19735 1.53754 1.71293C1.04774 2.21379 0.730809 2.72938 0.500316 3.33336C0.284229 3.90787 0.125775 4.5855 0.0825574 5.55776C0.03934 6.53001 0.0249329 6.83936 0.0249329 9.32892C0.0249329 11.8185 0.03934 12.1278 0.0825574 13.1001C0.125775 14.0723 0.284229 14.7352 0.500316 15.3245C0.730809 15.9285 1.03333 16.4293 1.53754 16.9449C2.02733 17.4458 2.53154 17.7698 3.12218 18.0055C3.68401 18.2265 4.34667 18.3886 5.29745 18.4327C6.24823 18.4769 6.55076 18.4917 8.98534 18.4917C11.4199 18.4917 11.7224 18.4769 12.6732 18.4327C13.624 18.3886 14.2723 18.2265 14.8485 18.0055C15.4391 17.7698 15.9289 17.4605 16.4331 16.9449C16.9229 16.444 17.2399 15.9285 17.4704 15.3245C17.6864 14.75 17.8449 14.0723 17.8881 13.1001C17.9313 12.1278 17.9457 11.8185 17.9457 9.32892C17.9457 6.83936 17.9313 6.53001 17.8881 5.55776C17.8449 4.5855 17.6864 3.9226 17.4704 3.33336C17.2399 2.72938 16.9373 2.22852 16.4331 1.71293C15.9433 1.21208 15.4391 0.887993 14.8485 0.652295C14.2867 0.431328 13.624 0.269286 12.6732 0.225093C11.7224 0.166168 11.4199 0.166168 8.98534 0.166168Z" fill="white"/>
<path id="Vector_2" d="M8.98535 4.61496C6.44993 4.61496 4.38989 6.72151 4.38989 9.31418C4.38989 11.9069 6.44993 14.0134 8.98535 14.0134C11.5208 14.0134 13.5808 11.9069 13.5808 9.31418C13.5808 6.72151 11.5208 4.61496 8.98535 4.61496ZM8.98535 12.3488C7.34309 12.3488 6.00335 10.9788 6.00335 9.29945C6.00335 7.62011 7.34309 6.25011 8.98535 6.25011C10.6276 6.25011 11.9673 7.62011 11.9673 9.29945C11.9673 10.9788 10.6276 12.3488 8.98535 12.3488Z" fill="white"/>
<path id="Vector_3" d="M13.7537 5.51358C14.3424 5.51358 14.8197 5.02552 14.8197 4.42348C14.8197 3.82143 14.3424 3.33337 13.7537 3.33337C13.1649 3.33337 12.6876 3.82143 12.6876 4.42348C12.6876 5.02552 13.1649 5.51358 13.7537 5.51358Z" fill="white"/>
</g>
</svg>
