<svg width="18" height="19" viewBox="0 0 18 19" fill="none" xmlns="http://www.w3.org/2000/svg">
<path d="M8.98534 1.71519C11.3767 1.71519 11.6504 1.72958 12.6012 1.77275C13.4655 1.81591 13.9409 1.95978 14.2579 2.07489C14.6756 2.23315 14.9782 2.43458 15.2807 2.73672C15.5976 3.05325 15.7849 3.341 15.9433 3.75824C16.0586 4.07477 16.217 4.54956 16.2459 5.41282C16.2891 6.34802 16.3035 6.63577 16.3035 9.02413C16.3035 11.4125 16.2891 11.6858 16.2459 12.6354C16.2026 13.4987 16.0586 13.9735 15.9433 14.29C15.7849 14.7073 15.5832 15.0094 15.2807 15.3115C14.9637 15.6281 14.6756 15.8151 14.2579 15.9734C13.9409 16.0885 13.4655 16.2467 12.6012 16.2755C11.6648 16.3187 11.3767 16.3331 8.98534 16.3331C6.59398 16.3331 6.32027 16.3187 5.36948 16.2755C4.50514 16.2323 4.02974 16.0885 3.71281 15.9734C3.29505 15.8151 2.99253 15.6137 2.69 15.3115C2.37308 14.995 2.1858 14.7073 2.02734 14.29C1.91209 13.9735 1.75363 13.4987 1.72482 12.6354C1.6816 11.7002 1.66719 11.4125 1.66719 9.02413C1.66719 6.63577 1.6816 6.36241 1.72482 5.41282C1.76804 4.54956 1.91209 4.07477 2.02734 3.75824C2.1858 3.341 2.38748 3.03886 2.69 2.73672C3.00693 2.42019 3.29505 2.23315 3.71281 2.07489C4.02974 1.95978 4.50514 1.80152 5.36948 1.77275C6.32027 1.72958 6.59398 1.71519 8.98534 1.71519ZM8.98534 0.118164C6.55076 0.118164 6.24823 0.132552 5.29745 0.175715C4.34667 0.218878 3.69841 0.377142 3.12218 0.592957C2.53154 0.823159 2.04174 1.1253 1.53754 1.62887C1.04774 2.11805 0.730809 2.62162 0.500316 3.21151C0.284229 3.77263 0.125775 4.43446 0.0825574 5.38405C0.03934 6.33363 0.0249329 6.63577 0.0249329 9.06729C0.0249329 11.4988 0.03934 11.8009 0.0825574 12.7505C0.125775 13.7001 0.284229 14.3476 0.500316 14.9231C0.730809 15.513 1.03333 16.0021 1.53754 16.5057C2.02733 16.9949 2.53154 17.3114 3.12218 17.5416C3.68401 17.7574 4.34667 17.9157 5.29745 17.9589C6.24823 18.002 6.55076 18.0164 8.98534 18.0164C11.4199 18.0164 11.7224 18.002 12.6732 17.9589C13.624 17.9157 14.2723 17.7574 14.8485 17.5416C15.4391 17.3114 15.9289 17.0093 16.4331 16.5057C16.9229 16.0165 17.2399 15.513 17.4704 14.9231C17.6864 14.3619 17.8449 13.7001 17.8881 12.7505C17.9313 11.8009 17.9457 11.4988 17.9457 9.06729C17.9457 6.63577 17.9313 6.33363 17.8881 5.38405C17.8449 4.43446 17.6864 3.78702 17.4704 3.21151C17.2399 2.62162 16.9373 2.13244 16.4331 1.62887C15.9433 1.13969 15.4391 0.823159 14.8485 0.592957C14.2867 0.377142 13.624 0.218878 12.6732 0.175715C11.7224 0.118164 11.4199 0.118164 8.98534 0.118164Z" fill="#212121"/>
<path d="M8.98535 4.46338C6.44993 4.46338 4.38989 6.52081 4.38989 9.05304C4.38989 11.5853 6.44993 13.6427 8.98535 13.6427C11.5208 13.6427 13.5808 11.5853 13.5808 9.05304C13.5808 6.52081 11.5208 4.46338 8.98535 4.46338ZM8.98535 12.0169C7.34309 12.0169 6.00335 10.6788 6.00335 9.03866C6.00335 7.39846 7.34309 6.06041 8.98535 6.06041C10.6276 6.06041 11.9673 7.39846 11.9673 9.03866C11.9673 10.6788 10.6276 12.0169 8.98535 12.0169Z" fill="#212121"/>
<path d="M13.7537 5.3408C14.3424 5.3408 14.8197 4.86412 14.8197 4.27611C14.8197 3.6881 14.3424 3.21143 13.7537 3.21143C13.1649 3.21143 12.6876 3.6881 12.6876 4.27611C12.6876 4.86412 13.1649 5.3408 13.7537 5.3408Z" fill="#212121"/>
</svg>
