<svg width="22" height="22" viewBox="0 0 22 22" fill="none" xmlns="http://www.w3.org/2000/svg">
<path d="M11.7841 9.00335C12.0764 8.6749 12.3322 8.32821 12.6245 8.0545C13.5563 7.17865 14.6708 6.74072 15.9497 6.74072C16.6622 6.74072 17.3565 6.79546 18.0507 6.99618C19.6219 7.45235 20.5172 8.52892 20.9556 10.0434C21.2845 11.193 21.3393 12.3608 21.3393 13.5468C21.3393 16.0284 21.3393 18.51 21.3393 20.9916C21.3393 21.2288 21.2662 21.2836 21.047 21.2836C19.7681 21.2653 18.4892 21.2653 17.2103 21.2836C16.9911 21.2836 16.9363 21.2106 16.9363 21.0099C16.9363 18.6377 16.9363 16.2839 16.9363 13.9118C16.9363 13.3279 16.8997 12.7257 16.7353 12.1601C16.4247 11.1017 15.6756 10.5543 14.5612 10.6091C13.0447 10.6821 12.2591 11.4484 12.0582 12.9812C12.0034 13.3461 11.9851 13.7111 11.9851 14.0943C11.9851 16.3934 11.9851 18.6925 11.9851 20.9916C11.9851 21.2288 11.9303 21.2836 11.6928 21.2836C10.3956 21.2653 9.1167 21.2653 7.81954 21.2836C7.61857 21.2836 7.54549 21.2288 7.54549 21.0281C7.54549 16.4846 7.54549 11.9229 7.54549 7.37937C7.54549 7.1604 7.61857 7.10566 7.83781 7.10566C9.06189 7.10566 10.286 7.12391 11.5101 7.10566C11.7293 7.10566 11.8024 7.17865 11.7841 7.39761C11.7659 7.90853 11.7841 8.45594 11.7841 9.00335Z" fill="#232323"/>
<path d="M4.7502 14.2035C4.7502 16.4479 4.7502 18.7105 4.7502 20.9549C4.7502 21.2104 4.69539 21.2834 4.42134 21.2834C3.14244 21.2651 1.86354 21.2651 0.584642 21.2834C0.383672 21.2834 0.310593 21.2286 0.310593 21.0279C0.310593 16.4662 0.310593 11.9044 0.310593 7.36093C0.310593 7.17846 0.347132 7.10547 0.548102 7.10547C1.84527 7.10547 3.14244 7.12372 4.43961 7.10547C4.69539 7.10547 4.73193 7.1967 4.71366 7.41567C4.7502 9.66004 4.7502 11.9227 4.7502 14.2035Z" fill="#232323"/>
<path d="M5.11559 2.56221C5.11559 3.96722 3.96458 5.13503 2.5578 5.13503C1.16928 5.13503 0 3.98547 0 2.5987C0 1.19368 1.15101 0.0258789 2.5578 0.0258789C3.96458 0.0258789 5.11559 1.17544 5.11559 2.56221Z" fill="#232323"/>
</svg>
