<svg width="22" height="22" viewBox="0 0 22 22" fill="none" xmlns="http://www.w3.org/2000/svg">
<g id="Group">
<path id="Vector" d="M11.7841 9.19182C12.0764 8.85553 12.3322 8.50056 12.6245 8.22032C13.5563 7.32356 14.6708 6.87518 15.9497 6.87518C16.6622 6.87518 17.3565 6.93123 18.0507 7.13674C19.6219 7.6038 20.5172 8.70607 20.9556 10.2567C21.2845 11.4337 21.3393 12.6294 21.3393 13.8438C21.3393 16.3846 21.3393 18.9254 21.3393 21.4662C21.3393 21.7091 21.2662 21.7652 21.047 21.7652C19.7681 21.7465 18.4892 21.7465 17.2103 21.7652C16.9911 21.7652 16.9363 21.6904 16.9363 21.4849C16.9363 19.0562 16.9363 16.6462 16.9363 14.2174C16.9363 13.6196 16.8997 13.0031 16.7353 12.4239C16.4247 11.3403 15.6756 10.7798 14.5612 10.8359C13.0447 10.9106 12.2591 11.6953 12.0582 13.2646C12.0034 13.6383 11.9851 14.0119 11.9851 14.4042C11.9851 16.7582 11.9851 19.1122 11.9851 21.4662C11.9851 21.7091 11.9303 21.7652 11.6928 21.7652C10.3956 21.7465 9.1167 21.7465 7.81954 21.7652C7.61857 21.7652 7.54549 21.7091 7.54549 21.5036C7.54549 16.8517 7.54549 12.181 7.54549 7.52907C7.54549 7.30488 7.61857 7.24883 7.83781 7.24883C9.06189 7.24883 10.286 7.26752 11.5101 7.24883C11.7293 7.24883 11.8024 7.32356 11.7841 7.54775C11.7659 8.07087 11.7841 8.63134 11.7841 9.19182Z" fill="#FDFDFD"/>
<path id="Vector_2" d="M4.75021 14.5163C4.75021 16.8143 4.75021 19.1309 4.75021 21.4289C4.75021 21.6904 4.6954 21.7652 4.42135 21.7652C3.14245 21.7465 1.86356 21.7465 0.584657 21.7652C0.383687 21.7652 0.310608 21.7091 0.310608 21.5036C0.310608 16.833 0.310608 12.1623 0.310608 7.51039C0.310608 7.32357 0.347147 7.24884 0.548117 7.24884C1.84529 7.24884 3.14245 7.26752 4.43962 7.24884C4.6954 7.24884 4.73194 7.34225 4.71367 7.56644C4.75021 9.8644 4.75021 12.181 4.75021 14.5163Z" fill="#FDFDFD"/>
<path id="Vector_3" d="M5.11559 2.59687C5.11559 4.03543 3.96458 5.23111 2.5578 5.23111C1.16928 5.23111 0 4.05411 0 2.63424C0 1.19568 1.15101 0 2.5578 0C3.96458 0 5.11559 1.177 5.11559 2.59687Z" fill="#FDFDFD"/>
</g>
</svg>
