<svg width="22" height="25" viewBox="0 0 22 25" fill="none" xmlns="http://www.w3.org/2000/svg">
<g clip-path="url(#clip0_65_145)">
<path d="M11.4844 0C12.0661 0.108839 12.6595 0.176711 13.2271 0.335078C14.8784 0.794282 16.2243 1.73226 17.2934 3.06401C18.0685 4.03011 18.5994 5.12278 18.8596 6.33346C19.3201 8.47234 18.9974 10.4901 17.8371 12.3533C17.0117 13.6789 16.1545 14.9843 15.3119 16.299C15.2734 16.3595 15.2397 16.4231 15.1876 16.5136C15.4454 16.5613 15.683 16.6017 15.9193 16.6493C17.3105 16.9312 18.679 17.2853 19.9397 17.9615C20.6347 18.3345 21.2758 18.7803 21.6774 19.4859C22.1624 20.3383 22.092 21.168 21.5268 21.9562C21.0786 22.5817 20.4479 22.9883 19.7762 23.3289C18.3753 24.0394 16.8678 24.4051 15.3279 24.6539C12.8934 25.0471 10.4472 25.0997 7.99739 24.8398C6.1464 24.6435 4.32786 24.2889 2.61403 23.5258C1.85784 23.1895 1.14634 22.778 0.605069 22.1323C-0.265012 21.0952 -0.188474 19.8155 0.784473 18.8695C1.44576 18.2269 2.2442 17.8129 3.0904 17.4828C4.22377 17.0407 5.40062 16.7557 6.59828 16.5521C6.66012 16.5417 6.72013 16.5234 6.80646 16.5026C6.74645 16.4072 6.70053 16.3326 6.65338 16.2592C5.81514 14.9513 4.96037 13.6538 4.14295 12.3331C3.08612 10.6271 2.69914 8.76584 3.05121 6.78961C3.56432 3.91332 5.19611 1.87473 7.84492 0.65487C8.625 0.295333 9.45895 0.102725 10.3192 0.0379103C10.3823 0.0330186 10.4448 0.0128406 10.5072 0C10.833 0 11.1587 0 11.4844 0ZM10.9964 20.3205C11.0583 20.2294 11.1091 20.1591 11.1556 20.0857C12.9166 17.3311 14.6721 14.5728 16.4392 11.8231C17.8303 9.65856 18.0079 7.39923 16.8605 5.10749C15.7981 2.98513 14.023 1.7506 11.6528 1.51702C9.16015 1.27183 7.14935 2.22754 5.65043 4.227C4.08233 6.3194 3.98191 9.37118 5.39143 11.5779C7.20874 14.4218 9.02911 17.2639 10.8483 20.1065C10.8905 20.1726 10.9377 20.2355 10.9964 20.3205ZM10.9866 23.4811C11.5402 23.4811 12.0949 23.5062 12.6466 23.4769C14.4241 23.3821 16.1753 23.1204 17.8677 22.5475C18.6631 22.2784 19.437 21.955 20.0769 21.3863C20.6604 20.8672 20.6708 20.3933 20.1081 19.857C19.647 19.4174 19.0886 19.1355 18.5075 18.894C17.2052 18.3529 15.8361 18.0789 14.4449 17.9004C14.3721 17.8912 14.2563 17.9695 14.2098 18.0392C13.8687 18.554 13.5399 19.0774 13.2075 19.5984C12.6956 20.4 12.1825 21.201 11.6743 22.0051C11.4826 22.3084 11.2285 22.4722 10.8593 22.4135C10.5942 22.3714 10.4374 22.1922 10.3021 21.9794C9.47303 20.6764 8.63969 19.3758 7.81247 18.071C7.72614 17.9346 7.65144 17.8613 7.46652 17.9022C7.12547 17.9774 6.77462 18.0049 6.43112 18.0685C5.13916 18.307 3.86619 18.6182 2.71445 19.2749C2.34584 19.4853 2.00234 19.7635 1.70476 20.0662C1.36616 20.4104 1.38698 20.795 1.70537 21.1582C1.86457 21.3398 2.04765 21.5086 2.24481 21.6474C3.01386 22.1867 3.88701 22.4998 4.78097 22.7535C6.80891 23.3277 8.88706 23.5178 10.9866 23.4811Z" fill="#333333"/>
<path d="M10.9987 11.765C8.98121 11.7668 7.328 10.1159 7.32984 8.1011C7.33167 6.08636 8.98795 4.43787 11.0049 4.44337C13.0132 4.44888 14.656 6.08941 14.6615 8.09499C14.667 10.1091 13.0163 11.7631 10.9987 11.765ZM10.9853 5.90903C9.78394 5.91943 8.79324 6.91549 8.79752 8.10844C8.80181 9.30506 9.79619 10.2975 10.9938 10.2993C12.1982 10.3017 13.2104 9.28427 13.1938 8.08765C13.1773 6.88553 12.1768 5.89864 10.9853 5.90903Z" fill="#333333"/>
</g>
<defs>
<clipPath id="clip0_65_145">
<rect width="22" height="25" fill="white"/>
</clipPath>
</defs>
</svg>
