<svg width="26" height="21" viewBox="0 0 26 21" fill="none" xmlns="http://www.w3.org/2000/svg">
<path d="M21.356 0.75H3.76871C2.76919 0.75 1.8106 1.13552 1.10383 1.82175C0.39706 2.50797 0 3.4387 0 4.40917V16.6064C0 17.5769 0.39706 18.5076 1.10383 19.1938C1.8106 19.8801 2.76919 20.2656 3.76871 20.2656H21.356C22.3556 20.2656 23.3142 19.8801 24.0209 19.1938C24.7277 18.5076 25.1248 17.5769 25.1248 16.6064V4.40917C25.1248 3.4387 24.7277 2.50797 24.0209 1.82175C23.3142 1.13552 22.3556 0.75 21.356 0.75ZM3.76871 3.18945H21.356C21.6892 3.18945 22.0088 3.31795 22.2443 3.5467C22.4799 3.77544 22.6123 4.08568 22.6123 4.40917L12.5624 10.3614L2.51248 4.40917C2.51248 4.08568 2.64483 3.77544 2.88042 3.5467C3.11601 3.31795 3.43554 3.18945 3.76871 3.18945ZM22.6123 16.6064C22.6123 16.9299 22.4799 17.2401 22.2443 17.4689C22.0088 17.6976 21.6892 17.8261 21.356 17.8261H3.76871C3.43554 17.8261 3.11601 17.6976 2.88042 17.4689C2.64483 17.2401 2.51248 16.9299 2.51248 16.6064V7.19014L11.9091 12.7643C12.1001 12.8713 12.3167 12.9277 12.5373 12.9277C12.7578 12.9277 12.9744 12.8713 13.1654 12.7643L22.6123 7.19014V16.6064Z" fill="#333333"/>
</svg>
