<svg width="24" height="24" viewBox="0 0 24 24" fill="none" xmlns="http://www.w3.org/2000/svg">
<path d="M21.2962 22.0413C14.7473 28.3999 -5.24913 8.98464 1.29977 2.62609L3.13346 0.845703C3.45538 0.533397 3.84675 0.29691 4.27752 0.154418C4.70828 0.0119268 5.16695 -0.0327759 5.61829 0.0237457C6.06962 0.0802674 6.50161 0.236508 6.88103 0.480461C7.26046 0.724414 7.57722 1.04958 7.80699 1.43098L8.60179 2.75182C8.88535 3.22241 9.02603 3.76128 9.0076 4.3062C8.98916 4.85112 8.81236 5.37987 8.4976 5.83138L7.95731 6.60452C7.66638 7.02182 7.53427 7.5245 7.58371 8.02613C7.63315 8.52775 7.86104 8.99699 8.2282 9.35314L11.2973 12.3344L14.3678 15.3143C14.7348 15.6705 15.2182 15.8915 15.7348 15.9393C16.2514 15.987 16.7691 15.8585 17.1987 15.5758L17.995 15.0527C18.46 14.7471 19.0046 14.5754 19.5658 14.5575C20.1271 14.5396 20.6821 14.6762 21.1667 14.9516L22.5271 15.7232C22.9198 15.9465 23.2546 16.2541 23.5057 16.6226C23.7568 16.991 23.9176 17.4105 23.9757 17.8487C24.0337 18.2869 23.9876 18.7322 23.8407 19.1504C23.6938 19.5686 23.4501 19.9485 23.1284 20.2609L21.2962 22.0413Z" fill="#333333"/>
</svg>
