<svg width="26" height="26" viewBox="0 0 26 26" fill="none" xmlns="http://www.w3.org/2000/svg">
<g id="Frame" clip-path="url(#clip0_10_18)">
<path id="Vector" d="M24.3081 26C23.8466 25.8629 23.5272 25.5488 23.2018 25.2232C21.2437 23.2526 19.2796 21.2821 17.3215 19.3172C17.2564 19.2487 17.1973 19.1744 17.1322 19.1002C14.198 20.9679 11.0626 21.4934 7.71422 20.5281C5.23549 19.8141 3.26553 18.3748 1.8339 16.2957C-1.26007 11.8005 -0.35495 5.89455 3.95176 2.43321C8.05142 -0.856771 13.843 -0.78823 17.848 2.46748C20.1256 4.3181 21.4389 6.69991 21.6992 9.57864C21.9595 12.4517 21.0899 14.9991 19.2027 17.2496C19.327 17.3752 19.4453 17.5009 19.5695 17.6208C21.5513 19.6085 23.5272 21.5962 25.509 23.5782C26.1242 24.1951 26.1775 25.0176 25.5918 25.5659C25.3907 25.7544 25.089 25.8515 24.8346 25.9943C24.6571 26 24.4856 26 24.3081 26ZM10.8792 2.75307C6.46598 2.74736 2.86325 6.22583 2.85142 10.4982C2.83959 14.7649 6.48373 18.2834 10.891 18.2548C15.3338 18.2263 18.9129 14.7706 18.9069 10.5039C18.901 6.23154 15.2983 2.75307 10.8792 2.75307Z" fill="#1E1E1E"/>
</g>
<defs>
<clipPath id="clip0_10_18">
<rect width="26" height="26" fill="white"/>
</clipPath>
</defs>
</svg>
