<svg width="18" height="16" viewBox="0 0 18 16" fill="none" xmlns="http://www.w3.org/2000/svg">
<g id="Group">
<path id="Vector" d="M5.87271 15.5719C12.5017 15.5719 16.1401 9.94886 16.1401 5.07269C16.1401 4.91767 16.1401 4.74855 16.1263 4.59353C16.8292 4.07209 17.4494 3.42382 17.9317 2.69098C17.284 2.98694 16.5949 3.18424 15.8645 3.2688C16.6087 2.81782 17.1875 2.08499 17.4494 1.22532C16.7465 1.6481 15.9747 1.95815 15.1616 2.12727C14.5001 1.40853 13.5629 0.95755 12.5293 0.95755C10.5309 0.95755 8.91846 2.60643 8.91846 4.6499C8.91846 4.94586 8.94604 5.22772 9.01495 5.49548C6.02431 5.34046 3.36443 3.87479 1.58659 1.64811C1.28339 2.19773 1.10422 2.83191 1.10422 3.50838C1.10422 4.79083 1.73819 5.91827 2.70291 6.58064C2.11029 6.56655 1.55902 6.39743 1.06288 6.11557C1.06288 6.12966 1.06288 6.14376 1.06288 6.15785C1.06288 7.94766 2.30322 9.44151 3.95703 9.77974C3.65383 9.8643 3.33687 9.90658 3.00611 9.90658C2.77182 9.90658 2.5513 9.87839 2.33079 9.83611C2.78559 11.3018 4.12242 12.3728 5.69354 12.401C4.45319 13.3875 2.90963 13.9794 1.21448 13.9794C0.92506 13.9794 0.635651 13.9653 0.360016 13.9231C1.94492 14.9519 3.83301 15.5719 5.87271 15.5719Z" fill="white"/>
</g>
</svg>
