<svg width="18" height="16" viewBox="0 0 18 16" fill="none" xmlns="http://www.w3.org/2000/svg">
<path d="M5.87271 15.1184C12.5017 15.1184 16.1401 9.6264 16.1401 4.86393C16.1401 4.71252 16.1401 4.54735 16.1263 4.39594C16.8292 3.88666 17.4494 3.25349 17.9317 2.53775C17.284 2.8268 16.5949 3.0195 15.8645 3.10209C16.6087 2.66163 17.1875 1.94588 17.4494 1.10625C16.7465 1.51918 15.9747 1.822 15.1616 1.98717C14.5001 1.28519 13.5629 0.844727 12.5293 0.844727C10.5309 0.844727 8.91846 2.45516 8.91846 4.45099C8.91846 4.74005 8.94604 5.01534 9.01495 5.27686C6.02431 5.12545 3.36443 3.69395 1.58659 1.51918C1.28339 2.05599 1.10422 2.67539 1.10422 3.33608C1.10422 4.58864 1.73819 5.68979 2.70291 6.33672C2.11029 6.32295 1.55902 6.15778 1.06288 5.88249C1.06288 5.89626 1.06288 5.91002 1.06288 5.92378C1.06288 7.67186 2.30322 9.13089 3.95703 9.46123C3.65383 9.54382 3.33687 9.58511 3.00611 9.58511C2.77182 9.58511 2.5513 9.55758 2.33079 9.51629C2.78559 10.9478 4.12242 11.9939 5.69354 12.0214C4.45319 12.9849 2.90963 13.563 1.21448 13.563C0.92506 13.563 0.635651 13.5493 0.360016 13.508C1.94492 14.5128 3.83301 15.1184 5.87271 15.1184Z" fill="#212121"/>
</svg>
