<svg width="20" height="16" viewBox="0 0 20 16" fill="none" xmlns="http://www.w3.org/2000/svg">
<path id="Vector" d="M19.5883 3.10177C19.3597 2.1704 18.6737 1.45144 17.8201 1.20634C16.2652 0.765167 9.99996 0.765167 9.99996 0.765167C9.99996 0.765167 3.73474 0.765167 2.17987 1.20634C1.31097 1.45144 0.640236 2.18674 0.411579 3.10177C-5.13361e-06 4.76844 0 8.26517 0 8.26517C0 8.26517 -5.13361e-06 11.7619 0.411579 13.4286C0.640236 14.3599 1.32622 15.0789 2.17987 15.324C3.73474 15.7652 9.99996 15.7652 9.99996 15.7652C9.99996 15.7652 16.2652 15.7652 17.8201 15.324C18.689 15.0789 19.3597 14.3436 19.5883 13.4286C19.9999 11.7619 19.9999 8.26517 19.9999 8.26517C19.9999 8.26517 20.0152 4.76844 19.5883 3.10177ZM7.98777 11.4841V5.04621L13.1859 8.26517L7.98777 11.4841Z" fill="white"/>
</svg>
