<svg width="21" height="15" viewBox="0 0 21 15" fill="none" xmlns="http://www.w3.org/2000/svg">
<path d="M19.9484 2.29899C19.7197 1.42971 19.0337 0.758687 18.1801 0.529929C16.6252 0.118164 10.36 0.118164 10.36 0.118164C10.36 0.118164 4.09476 0.118164 2.53989 0.529929C1.67099 0.758687 1.00025 1.44496 0.771595 2.29899C0.360011 3.85455 0.360016 7.11817 0.360016 7.11817C0.360016 7.11817 0.360011 10.3818 0.771595 11.9373C1.00025 12.8066 1.68623 13.4776 2.53989 13.7064C4.09476 14.1182 10.36 14.1182 10.36 14.1182C10.36 14.1182 16.6252 14.1182 18.1801 13.7064C19.049 13.4776 19.7197 12.7914 19.9484 11.9373C20.3599 10.3818 20.3599 7.11817 20.3599 7.11817C20.3599 7.11817 20.3752 3.85455 19.9484 2.29899ZM8.34779 10.1225V4.11381L13.5459 7.11817L8.34779 10.1225Z" fill="#212121"/>
</svg>
